<?xml version="1.0" standalone="no"?>
<svg xmlns:xlink="http://www.w3.org/1999/xlink" id="wave" style="transform:rotate(180deg); transition: 0.3s" viewBox="0 0 1440 240" version="1.1" xmlns="http://www.w3.org/2000/svg"><defs><linearGradient id="sw-gradient-0" x1="0" x2="0" y1="1" y2="0"><stop stop-color="rgba(187, 151, 127, 1)" offset="0%"/><stop stop-color="rgba(187, 151, 127, 1)" offset="100%"/></linearGradient></defs><path style="transform:translate(0, 0px); opacity:1" fill="url(#sw-gradient-0)" d="M0,192L40,176C80,160,160,128,240,128C320,128,400,160,480,176C560,192,640,192,720,168C800,144,880,96,960,92C1040,88,1120,128,1200,144C1280,160,1360,152,1440,128C1520,104,1600,64,1680,72C1760,80,1840,136,1920,132C2000,128,2080,64,2160,52C2240,40,2320,80,2400,100C2480,120,2560,120,2640,128C2720,136,2800,152,2880,168C2960,184,3040,200,3120,176C3200,152,3280,88,3360,56C3440,24,3520,24,3600,56C3680,88,3760,152,3840,156C3920,160,4000,104,4080,76C4160,48,4240,48,4320,68C4400,88,4480,128,4560,156C4640,184,4720,200,4800,200C4880,200,4960,184,5040,168C5120,152,5200,136,5280,116C5360,96,5440,72,5520,84C5600,96,5680,144,5720,168L5760,192L5760,240L5720,240C5680,240,5600,240,5520,240C5440,240,5360,240,5280,240C5200,240,5120,240,5040,240C4960,240,4880,240,4800,240C4720,240,4640,240,4560,240C4480,240,4400,240,4320,240C4240,240,4160,240,4080,240C4000,240,3920,240,3840,240C3760,240,3680,240,3600,240C3520,240,3440,240,3360,240C3280,240,3200,240,3120,240C3040,240,2960,240,2880,240C2800,240,2720,240,2640,240C2560,240,2480,240,2400,240C2320,240,2240,240,2160,240C2080,240,2000,240,1920,240C1840,240,1760,240,1680,240C1600,240,1520,240,1440,240C1360,240,1280,240,1200,240C1120,240,1040,240,960,240C880,240,800,240,720,240C640,240,560,240,480,240C400,240,320,240,240,240C160,240,80,240,40,240L0,240Z"/></svg>